<svg xmlns="http://www.w3.org/2000/svg" viewBox="0 0 64 64">
  <defs>
    <linearGradient id="grad1" x1="0%" y1="0%" x2="100%" y2="100%">
      <stop offset="0%" style="stop-color:#009688;stop-opacity:1" /> <!-- Teal -->
      <stop offset="100%" style="stop-color:#263238;stop-opacity:1" /> <!-- Slate Dark -->
    </linearGradient>
  </defs>
  
  <!-- Cloud Shape Background -->
  <path d="M48 24h-1.8c-0.7-6.6-6.3-11.8-13.2-11.8 -5.6 0-10.4 3.4-12.4 8.2C19.8 20.1 19 20 18 20c-5.5 0-10 4.5-10 10 0 5.2 4 9.5 9.1 9.9L17 40h31c5.5 0 10-4.5 10-10S53.5 24 48 24z" fill="url(#grad1)" />
  
  <!-- Code Brackets Symbol inside -->
  <path d="M26 26l-4 4 4 4 M38 26l4 4-4 4 M30 36l4-12" stroke="#ffffff" stroke-width="3" stroke-linecap="round" stroke-linejoin="round" fill="none"/>
</svg>